<svg width="42" height="42" viewBox="0 0 42 42" fill="none" xmlns="http://www.w3.org/2000/svg">
<path d="M35.6872 6.22913C33.7772 4.29981 31.5021 2.7701 28.9948 1.72923C26.4874 0.688366 23.7978 0.15717 21.083 0.166628C9.70801 0.166628 0.437175 9.43746 0.437175 20.8125C0.437175 24.4583 1.39551 28 3.18717 31.125L0.270508 41.8333L11.208 38.9583C14.2288 40.6041 17.6247 41.4791 21.083 41.4791C32.458 41.4791 41.7288 32.2083 41.7288 20.8333C41.7288 15.3125 39.583 10.125 35.6872 6.22913ZM21.083 37.9791C17.9997 37.9791 14.9788 37.1458 12.333 35.5833L11.708 35.2083L5.20801 36.9166L6.93717 30.5833L6.52051 29.9375C4.80748 27.202 3.89788 24.04 3.89551 20.8125C3.89551 11.3541 11.6038 3.64579 21.0622 3.64579C25.6455 3.64579 29.958 5.43746 33.1872 8.68746C34.7861 10.2791 36.0532 12.1722 36.9151 14.2571C37.7769 16.342 38.2164 18.5773 38.208 20.8333C38.2497 30.2916 30.5413 37.9791 21.083 37.9791ZM30.4997 25.1458C29.9788 24.8958 27.4372 23.6458 26.9788 23.4583C26.4997 23.2916 26.1663 23.2083 25.8122 23.7083C25.458 24.2291 24.4788 25.3958 24.1872 25.7291C23.8955 26.0833 23.583 26.125 23.0622 25.8541C22.5413 25.6041 20.8747 25.0416 18.9163 23.2916C17.3747 21.9166 16.3538 20.2291 16.0413 19.7083C15.7497 19.1875 15.9997 18.9166 16.2705 18.6458C16.4997 18.4166 16.7913 18.0416 17.0413 17.75C17.2913 17.4583 17.3955 17.2291 17.5622 16.8958C17.7288 16.5416 17.6455 16.25 17.5205 16C17.3955 15.75 16.3538 13.2083 15.9372 12.1666C15.5205 11.1666 15.083 11.2916 14.7705 11.2708H13.7705C13.4163 11.2708 12.8747 11.3958 12.3955 11.9166C11.9372 12.4375 10.6038 13.6875 10.6038 16.2291C10.6038 18.7708 12.458 21.2291 12.708 21.5625C12.958 21.9166 16.3538 27.125 21.5205 29.3541C22.7497 29.8958 23.708 30.2083 24.458 30.4375C25.6872 30.8333 26.8122 30.7708 27.708 30.6458C28.708 30.5 30.7705 29.3958 31.1872 28.1875C31.6247 26.9791 31.6247 25.9583 31.4788 25.7291C31.333 25.5 31.0205 25.3958 30.4997 25.1458Z" fill="#333333"/>
</svg>
