<svg width="100" height="100" viewBox="0 0 100 100" fill="none" xmlns="http://www.w3.org/2000/svg">
<path d="M99.0706 15.4146L87.4608 34.9268V93.7561C87.4608 95.5122 86.8592 96.9919 85.656 98.1951C84.4527 99.3984 82.973 100 81.2169 100H18.7779C17.0218 100 15.5421 99.3821 14.3389 98.1463C13.1356 96.9106 12.534 95.4472 12.534 93.7561V34.9268L0.924241 15.4146C0.0136719 13.9837 -0.21397 12.4553 0.241314 10.8293C0.696599 9.20325 1.67221 7.96748 3.16814 7.12195C4.66408 6.27642 6.24131 6.0813 7.89985 6.53659C9.55839 6.99187 10.8104 7.93496 11.6559 9.36585L20.9242 24.9756H79.0706L88.3389 9.36585C89.1844 7.93496 90.4364 6.99187 92.095 6.53659C93.7535 6.0813 95.3307 6.27642 96.8267 7.12195C98.3226 7.96748 99.2982 9.20325 99.7535 10.8293C100.209 12.4553 99.9812 13.9837 99.0706 15.4146ZM68.7291 56.3902H67.5584C66.8429 54.439 65.7373 52.5528 64.2413 50.7317L64.8267 49.7561C65.6722 48.3252 65.8673 46.7967 65.4121 45.1707C64.9568 43.5447 63.9812 42.3252 62.4852 41.5122C60.9893 40.6992 59.4121 40.5041 57.7535 40.9268C56.095 41.3496 54.8429 42.2764 53.9974 43.7073L53.4121 44.6829C52.1763 44.4228 51.0381 44.2927 49.9974 44.2927C48.9568 44.2927 47.8186 44.4228 46.5828 44.6829L45.9974 43.7073C45.1519 42.2764 43.8999 41.3496 42.2413 40.9268C40.5828 40.5041 39.0055 40.6992 37.5096 41.5122C36.0137 42.3252 35.0381 43.5447 34.5828 45.1707C34.1275 46.7967 34.3226 48.3252 35.1681 49.7561L35.8511 50.7317C34.2901 52.5528 33.1519 54.439 32.4364 56.3902H31.2657C29.5096 56.3902 28.0299 56.9919 26.8267 58.1951C25.6234 59.3984 25.0218 60.8293 25.0218 62.4878C25.0218 64.1463 25.6234 65.5772 26.8267 66.7805C28.0299 67.9837 29.5096 68.5854 31.2657 68.5854H32.4364C33.1519 70.6016 34.2901 72.4878 35.8511 74.2439L35.1681 75.2195C34.3226 76.6504 34.1275 78.1789 34.5828 79.8049C35.0381 81.4309 36.0137 82.6667 37.5096 83.5122C39.0055 84.3577 40.5828 84.5528 42.2413 84.0976C43.8999 83.6423 45.1519 82.6992 45.9974 81.2683L46.5828 80.3902C47.8186 80.5854 48.9568 80.6829 49.9974 80.6829C51.0381 80.6829 52.1763 80.5854 53.4121 80.3902L53.9974 81.2683C54.8429 82.6992 56.095 83.6423 57.7535 84.0976C59.4121 84.5528 60.9893 84.3577 62.4852 83.5122C63.9812 82.6667 64.9568 81.4309 65.4121 79.8049C65.8673 78.1789 65.6722 76.6504 64.8267 75.2195L64.2413 74.2439C65.7373 72.4878 66.8429 70.6016 67.5584 68.5854H68.7291C70.4852 68.5854 71.9649 67.9837 73.1682 66.7805C74.3714 65.5772 74.973 64.1463 74.973 62.4878C74.973 60.8293 74.3714 59.3984 73.1682 58.1951C71.9649 56.9919 70.4852 56.3902 68.7291 56.3902ZM49.9974 68.7805C48.3064 68.7805 46.8429 68.1626 45.6072 66.9268C44.3714 65.6911 43.7535 64.2276 43.7535 62.5366C43.7535 60.8455 44.3714 59.3821 45.6072 58.1463C46.8429 56.9106 48.3064 56.2927 49.9974 56.2927C51.6885 56.2927 53.1519 56.9106 54.3877 58.1463C55.6234 59.3821 56.2413 60.8455 56.2413 62.5366C56.2413 64.2276 55.6234 65.6911 54.3877 66.9268C53.1519 68.1626 51.6885 68.7805 49.9974 68.7805ZM18.7779 6.2439C18.7779 4.4878 19.3795 3.00813 20.5828 1.80488C21.786 0.601626 23.2657 0 25.0218 0H74.973C76.7291 0 78.2088 0.617886 79.4121 1.85366C80.6153 3.08943 81.2169 4.55285 81.2169 6.2439V18.7317H18.7779V6.2439Z" fill="#E31E24"/>
</svg>
