<svg width="50" height="50" viewBox="0 0 50 50" fill="none" xmlns="http://www.w3.org/2000/svg">
<path d="M11.4183 4.14946C11.2338 3.91215 11.0009 3.71681 10.7352 3.57641C10.4694 3.43601 10.1768 3.35377 9.87676 3.33515C9.57676 3.31653 9.27623 3.36195 8.99513 3.46841C8.71403 3.57486 8.4588 3.73991 8.24639 3.95258L5.01514 7.18696C3.50577 8.69946 2.94952 10.8401 3.60889 12.7182C6.34558 20.4919 10.7973 27.5498 16.6339 33.3682C22.4524 39.2047 29.5102 43.6564 37.2839 46.3932C39.162 47.0526 41.3026 46.4963 42.8151 44.987L46.0464 41.7557C46.2591 41.5433 46.4241 41.2881 46.5306 41.007C46.637 40.7259 46.6824 40.4253 46.6638 40.1253C46.6452 39.8253 46.563 39.5327 46.4226 39.2669C46.2822 39.0012 46.0868 38.7683 45.8495 38.5838L38.6401 32.9776C38.3866 32.7809 38.0917 32.6445 37.7778 32.5784C37.4638 32.5124 37.1389 32.5185 36.8276 32.5963L29.9839 34.3057C29.0704 34.534 28.1133 34.5219 27.2059 34.2705C26.2985 34.0192 25.4716 33.5371 24.8058 32.8713L17.1308 25.1932C16.4644 24.5277 15.9818 23.701 15.7299 22.7935C15.478 21.8861 15.4653 20.9289 15.6933 20.0151L17.4058 13.1713C17.4836 12.8601 17.4897 12.5352 17.4237 12.2212C17.3576 11.9072 17.2212 11.6124 17.0245 11.3588L11.4183 4.14946ZM5.88702 1.59633C6.43388 1.0493 7.09086 0.624864 7.81433 0.351211C8.5378 0.0775573 9.31121 -0.0390531 10.0832 0.00912277C10.8552 0.0572987 11.6081 0.269158 12.292 0.630634C12.9758 0.99211 13.5749 1.49493 14.0495 2.10571L19.6558 9.31196C20.6839 10.6338 21.0464 12.3557 20.6401 13.9807L18.9308 20.8245C18.8424 21.1789 18.8472 21.5502 18.9446 21.9023C19.0421 22.2544 19.2289 22.5753 19.487 22.8338L27.1651 30.512C27.424 30.7706 27.7454 30.9577 28.0981 31.0552C28.4508 31.1527 28.8227 31.1572 29.1776 31.0682L36.0183 29.3588C36.8202 29.1583 37.6572 29.1428 38.466 29.3133C39.2748 29.4838 40.0343 29.836 40.687 30.3432L47.8933 35.9495C50.4839 37.9651 50.7214 41.7932 48.4026 44.1088L45.1714 47.3401C42.8589 49.6526 39.4026 50.6682 36.1808 49.5338C27.9345 46.6323 20.4472 41.9114 14.2745 35.7213C8.0848 29.5495 3.36392 22.0634 0.462019 13.8182C-0.669231 10.5995 0.346394 7.14008 2.65889 4.82758L5.89014 1.59633H5.88702Z" fill="#333333"/>
</svg>
