<svg width="84" height="84" viewBox="0 0 84 84" fill="none" xmlns="http://www.w3.org/2000/svg">
<path d="M58.6664 8.66659C58.6664 4.08325 62.4163 0.333252 66.9997 0.333252C71.583 0.333252 75.333 4.08325 75.333 8.66659C75.333 13.2499 71.583 16.9999 66.9997 16.9999C62.4163 16.9999 58.6664 13.2499 58.6664 8.66659ZM78.583 23.5833C74.9294 21.989 70.986 21.1663 66.9997 21.1666C64.208 21.1666 61.5414 21.5833 58.9997 22.3333C61.4163 24.6249 62.833 27.8333 62.833 31.2916V33.6666H83.6664V31.2916C83.6664 27.9166 81.6664 24.9166 78.583 23.5833ZM16.9997 16.9999C21.583 16.9999 25.333 13.2499 25.333 8.66659C25.333 4.08325 21.583 0.333252 16.9997 0.333252C12.4163 0.333252 8.66634 4.08325 8.66634 8.66659C8.66634 13.2499 12.4163 16.9999 16.9997 16.9999ZM24.9997 22.3333C22.458 21.5833 19.7913 21.1666 16.9997 21.1666C12.8747 21.1666 8.95801 22.0416 5.41634 23.5833C3.90681 24.2285 2.62019 25.3031 1.71642 26.6736C0.812644 28.0441 0.331576 29.6499 0.333011 31.2916V33.6666H21.1663V31.2916C21.1663 27.8333 22.583 24.6249 24.9997 22.3333ZM33.6663 8.66659C33.6663 4.08325 37.4163 0.333252 41.9997 0.333252C46.583 0.333252 50.333 4.08325 50.333 8.66659C50.333 13.2499 46.583 16.9999 41.9997 16.9999C37.4163 16.9999 33.6663 13.2499 33.6663 8.66659ZM58.6664 33.6666H25.333V31.2916C25.333 27.9166 27.333 24.9166 30.4163 23.5833C34.0699 21.9887 38.0133 21.1657 41.9997 21.1657C45.986 21.1657 49.9295 21.9887 53.583 23.5833C55.0925 24.2285 56.3792 25.3031 57.2829 26.6736C58.1867 28.0441 58.6678 29.6499 58.6664 31.2916V33.6666ZM54.4997 58.6666C54.4997 54.0833 58.2497 50.3333 62.833 50.3333C67.4164 50.3333 71.1663 54.0833 71.1663 58.6666C71.1663 63.2499 67.4164 66.9999 62.833 66.9999C58.2497 66.9999 54.4997 63.2499 54.4997 58.6666ZM79.4997 83.6666H46.1663V81.2916C46.1663 77.9166 48.1664 74.9166 51.2497 73.5833C54.9032 71.9887 58.8467 71.1657 62.833 71.1657C66.8194 71.1657 70.7628 71.9887 74.4164 73.5833C75.9259 74.2285 77.2125 75.3031 78.1163 76.6736C79.02 78.0441 79.5011 79.6499 79.4997 81.2916V83.6666ZM12.833 58.6666C12.833 54.0833 16.583 50.3333 21.1663 50.3333C25.7497 50.3333 29.4997 54.0833 29.4997 58.6666C29.4997 63.2499 25.7497 66.9999 21.1663 66.9999C16.583 66.9999 12.833 63.2499 12.833 58.6666ZM37.833 83.6666H4.49968V81.2916C4.49968 77.9166 6.49968 74.9166 9.58301 73.5833C13.2366 71.9887 17.18 71.1657 21.1663 71.1657C25.1527 71.1657 29.0961 71.9887 32.7497 73.5833C34.2592 74.2285 35.5458 75.3031 36.4496 76.6736C37.3534 78.0441 37.8344 79.6499 37.833 81.2916V83.6666ZM45.1247 46.1666V37.8333H38.8747V46.1666H29.4997L41.9997 58.6666L54.4997 46.1666H45.1247Z" fill="#E31E24"/>
</svg>
