<svg width="88" height="86" viewBox="0 0 88 86" fill="none" xmlns="http://www.w3.org/2000/svg">
<path d="M41.9997 6.75C34.9976 6.74984 28.1526 8.82528 22.3296 12.714C16.5066 16.6028 11.967 22.1303 9.28443 28.5982C6.60186 35.0661 5.8967 42.184 7.25808 49.0525C8.61945 55.921 11.9863 62.2318 16.933 67.1875C17.502 67.7772 17.8166 68.5667 17.8091 69.3861C17.8016 70.2054 17.4726 70.9891 16.8929 71.5682C16.3132 72.1473 15.5293 72.4756 14.7099 72.4823C13.8906 72.4891 13.1013 72.1737 12.5122 71.6042C8.64522 67.74 5.57888 63.1507 3.48893 58.0992C1.39898 53.0477 0.326529 47.6334 0.333037 42.1667C0.333037 19.1542 18.9872 0.5 41.9997 0.5C65.0122 0.5 83.6664 19.1542 83.6664 42.1667C83.6664 47.2958 82.7372 52.2083 81.0414 56.75H77.6247C79.204 55.2887 80.4636 53.5163 81.3241 51.5442C82.1847 49.5722 82.6275 47.4433 82.6247 45.2917C82.6288 42.8087 82.0396 40.3607 80.906 38.1516C79.7725 35.9425 78.1275 34.0363 76.108 32.5917C74.0169 25.1551 69.5527 18.6056 63.3954 13.9405C57.238 9.27546 49.7247 6.75046 41.9997 6.75ZM51.3747 45.2917C51.3747 43.5083 51.6747 41.7917 52.2289 40.1917C51.7589 37.7571 50.4359 35.57 48.4977 34.0236C46.5595 32.4772 44.1333 31.6728 41.6551 31.7551C39.177 31.8375 36.8095 32.8011 34.9782 34.4728C33.147 36.1444 31.972 38.4145 31.6647 40.8749C31.3573 43.3353 31.9377 45.8246 33.3015 47.8954C34.6653 49.9662 36.723 51.4826 39.1047 52.172C41.4864 52.8614 44.036 52.6786 46.295 51.6565C48.5541 50.6344 50.3744 48.84 51.4289 46.5958C51.3928 46.162 51.3747 45.727 51.3747 45.2917ZM37.833 42.1667C37.833 41.0616 38.272 40.0018 39.0534 39.2204C39.8348 38.439 40.8946 38 41.9997 38C43.1048 38 44.1646 38.439 44.946 39.2204C45.7274 40.0018 46.1664 41.0616 46.1664 42.1667C46.1664 43.2717 45.7274 44.3315 44.946 45.1129C44.1646 45.8943 43.1048 46.3333 41.9997 46.3333C40.8946 46.3333 39.8348 45.8943 39.0534 45.1129C38.272 44.3315 37.833 43.2717 37.833 42.1667ZM59.8414 31.4C61.7164 30.4292 63.8205 29.8292 66.0497 29.6917C64.2491 26.2257 61.7202 23.1902 58.6364 20.7933C55.5525 18.3964 51.9868 16.6949 48.1836 15.8055C44.3805 14.916 40.4299 14.8597 36.603 15.6403C32.776 16.4209 29.1632 18.0201 26.0122 20.328C22.8613 22.636 20.2468 25.5981 18.3481 29.0113C16.4495 32.4245 15.3115 36.208 15.0123 40.1023C14.713 43.9966 15.2597 47.9096 16.6146 51.5728C17.9696 55.236 20.1008 58.5628 22.8622 61.325C23.1483 61.632 23.4933 61.8783 23.8766 62.0491C24.26 62.2199 24.6738 62.3117 25.0934 62.3191C25.513 62.3265 25.9297 62.2494 26.3189 62.0922C26.708 61.935 27.0615 61.7011 27.3582 61.4043C27.6549 61.1076 27.8889 60.7541 28.046 60.365C28.2032 59.9759 28.2804 59.5591 28.273 59.1395C28.2656 58.7199 28.1738 58.3061 28.003 57.9228C27.8322 57.5394 27.5859 57.1944 27.2789 56.9083C25.1923 54.8241 23.572 52.3206 22.5252 49.5635C21.4784 46.8063 21.0289 43.8583 21.2065 40.9144C21.3841 37.9706 22.1846 35.098 23.5552 32.4866C24.9258 29.8753 26.8352 27.5847 29.1572 25.7664C31.4791 23.948 34.1607 22.6434 37.0244 21.9388C39.8882 21.2341 42.869 21.1455 45.7696 21.6789C48.6701 22.2122 51.4244 23.3553 53.8502 25.0326C56.276 26.7098 58.3181 28.883 59.8414 31.4083V31.4ZM75.333 37.425C74.2625 36.2895 72.9709 35.3851 71.5378 34.7674C70.1047 34.1497 68.5603 33.8318 66.9997 33.8333C64.3629 33.8338 61.807 34.7437 59.7631 36.4094C57.7191 38.0752 56.3122 40.3949 55.7797 42.9773C55.2471 45.5597 55.6215 48.2468 56.8396 50.5853C58.0578 52.9238 60.0452 54.7706 62.4666 55.8143C64.888 56.8579 67.5953 57.0345 70.1318 56.3142C72.6682 55.594 74.8787 54.021 76.3903 51.8605C77.9019 49.7001 78.6222 47.0844 78.4296 44.4547C78.2369 41.825 77.1433 39.3422 75.333 37.425ZM52.4164 60.9167H52.358C50.7106 60.932 49.1358 61.5973 47.9763 62.7678C46.8168 63.9382 46.1663 65.5191 46.1664 67.1667V69.25C46.1664 71.375 46.683 73.5125 47.6789 75.5167C48.9401 78.0056 50.7876 80.1506 53.0622 81.7667C56.5455 84.2875 61.258 85.9167 67.0039 85.9167C80.0872 85.9167 87.8372 77.4625 87.8372 69.25V67.1667C87.8372 65.5091 87.1787 63.9194 86.0066 62.7473C84.8345 61.5752 83.2448 60.9167 81.5872 60.9167H52.4205H52.4164Z" fill="#E31E24"/>
</svg>
